# AST/ASF file generated using VICON BodyLanguage
# -----------------------------------------------
:version 1.10
:name VICON
:units
  mass 1.0
  length 0.45
  angle deg
:documentation
   .ast/.asf automatically generated from VICON data using
   VICON BodyBuilder and BodyLanguage model FoxedUp or BRILLIANT.MOD
:root
   order TX TY TZ RX RY RZ
   axis XYZ
   position 0 0 0  
   orientation 0 0 0 
:bonedata
  begin
     id 1 
     name lhipjoint
     direction 0.558404 -0.748506 0.357664 
     length 2.4234 
     axis 0 0 0  XYZ
  end
  begin
     id 2 
     name lfemur
     direction 0.34202 -0.939693 0  
     length 7.14567  
     axis 0 0 20  XYZ
    dof rx ry rz
    limits (-160.0 20.0)
           (-70.0 70.0)
           (-60.0 70.0)
  end
  begin
     id 3 
     name ltibia
     direction 0.34202 -0.939693 0   
     length 8.13956   
     axis 0 0 20   XYZ
    dof rx
    limits (-10.0 170.0)
  end
  begin
     id 4 
     name lfoot
     direction 0.0791314 -0.217412 0.972867   
     length 2.00134   
     axis -90 7.62852e-016 20   XYZ
    dof rx rz
    limits (-45.0 90.0)
           (-70.0 20.0)
  end
  begin
     id 5 
     name ltoes
     direction 1.53547e-011 -4.21922e-011 1   
     length 1.00735   
     axis -90 7.62852e-016 20   XYZ
    dof rx
    limits (-90.0 20.0)
  end
  begin
     id 6 
     name rhipjoint
     direction -0.496392 -0.78327 0.374276   
     length 2.31584  
     axis 0 0 0  XYZ 
  end
  begin
     id 7 
     name rfemur
     direction -0.34202 -0.939693 0   
     length 7.47417   
     axis 0 0 -20   XYZ
    dof rx ry rz
    limits (-160.0 20.0)
           (-70.0 70.0)
           (-70.0 60.0)
  end
  begin
     id 8 
     name rtibia
     direction -0.34202 -0.939693 0   
     length 7.69071   
     axis 0 0 -20   XYZ
    dof rx
    limits (-10.0 170.0)
 end
 begin
     id 9 
     name rfoot
     direction -0.103069 -0.28318 0.953512   
     length 2.16135  
     axis -90 -7.62852e-016 -20   XYZ
    dof rx rz
    limits (-45.0 90.0)
           (-20.0 70.0)
  end
  begin
     id 10 
     name rtoes
     direction -1.53581e-011 -4.21904e-011 1   
     length 1.07867   
     axis -90 -7.62852e-016 -20   XYZ
    dof rx
    limits (-90.0 20.0)
  end
  begin
     id 11 
     name lowerback
     direction -0.0258961 0.994776 -0.0987407   
     length 2.19412   
     axis 0 0 0   XYZ
    dof rx ry rz
    limits (-20.0 45.0)
           (-30.0 30.0)
           (-30.0 30.0)
  end
  begin
     id 12 
     name upperback
     direction 0.0402454 0.999185 0.00320666   
     length 2.18445   
     axis 0 0 0   XYZ
    dof rx ry rz
    limits (-20.0 45.0)
           (-30.0 30.0)
           (-30.0 30.0)
  end
  begin
     id 13 
     name thorax
     direction 0.0519376 0.997415 0.0496558   
     length 2.21487   
     axis 0 0 0   XYZ
    dof rx ry rz
    limits (-20.0 45.0)
           (-30.0 30.0)
           (-30.0 30.0)
  end
  begin
     id 14 
     name lowerneck
     direction -0.0921276 0.983211 0.157506   
     length 1.61201   
     axis 0 0 0   XYZ
    dof rx ry rz
    limits (-20.0 45.0)
           (-30.0 30.0)
           (-30.0 30.0)
  end
  begin
     id 15 
     name upperneck
     direction 0.0820814 0.98162 -0.172292   
     length 1.65275   
     axis 0 0 0   XYZ
    dof rx ry rz
    limits (-20.0 45.0)
           (-30.0 30.0)
           (-30.0 30.0)
  end
  begin
     id 16
     name head
     direction 0.0336554 0.996413 -0.0776455  
     length 1.66415  
     axis 0 0 0   XYZ
    dof rx ry rz
    limits (-20.0 45.0)
           (-30.0 30.0)
           (-30.0 30.0)
  end
  begin
     id 17 
     name lclavicle
     direction 0.94696 0.284418 -0.149576  
     length 3.41447  
     axis 0 0 0   XYZ
    dof ry rz
    limits (-20.0 10.0)
           (0.0 20.0)
  end
  begin
     id 18 
     name lhumerus
     direction 1 -0.000130264 -9.81312e-005   
     length 5.19964   
     axis 180 -30 -90   XYZ
    dof rx ry rz
    limits (-60.0 90.0)
           (-90.0 90.0)
           (-90.0 90.0)
  end
  begin
     id 19
     name lradius
     direction 1 -4.48961e-011 1.43854e-026   
     length 3.32189   
     axis 180 -30 -90   XYZ
    dof rx
    limits (-10.0 170.0)
  end
  begin
     id 20
     name lwrist
     direction 1 -4.48958e-011 3.1502e-026   
     length 1.66095   
     axis -1.97692e-014 90 90   XYZ
    dof ry
    limits (-180.0 0.0)
 end
  begin
     id 21 
     name lhand
     direction 1 -4.48927e-011 6.3004e-026   
     length 0.645616   
     axis -4.02019e-014 90 90   XYZ
    dof rx rz
    limits (-90.0 90.0)
           (-45.0 45.0)
  end
  begin
     id 22 
     name lfingers
     direction 1 -4.4904e-011 1.26008e-025   
     length 0.520512   
     axis -8.04039e-014 90 90   XYZ
    dof rx
    limits (0.0 90.0)
  end
  begin
     id 23
     name lthumb
     direction 0.707107 -6.34947e-011 0.707107   
     length 0.747354   
     axis -90 45 2.85299e-015   XYZ
    dof rx rz
    limits (-45.0 45.0)
           (-45.0 45.0)
  end
  begin
     id 24 
     name rclavicle
     direction -0.909391 0.383475 -0.161107   
     length 3.25176  
     axis 0 0 0   XYZ 
    dof ry rz
    limits (-10.0 20.0)
           (-20.0 0.0)
  end
  begin
     id 25 
     name rhumerus
     direction -1 -4.48965e-011 -1.81384e-027  
     length 5.6595   
     axis 180 30 90   XYZ
    dof rx ry rz
    limits (-90.0 60.0)
           (-90.0 90.0)
           (-90.0 90.0)
  end
  begin
     id 26 
     name rradius
     direction -1 -4.48996e-011 -8.09397e-027   
     length 3.37604   
     axis 180 30 90   XYZ
    dof rx
    limits (-10.0 170.0)
  end
  begin
     id 27 
     name rwrist
     direction -1 -4.48927e-011 -1.56669e-026   
     length 1.68802   
     axis 1.21142e-014 -90 -90   XYZ
    dof ry
    limits (-180.0 0.0)
  end
  begin
     id 28
     name rhand
     direction -1 -4.48912e-011 -3.13339e-026   
     length 0.824702   
     axis 1.99937e-014 -90 -90   XYZ
    dof rx rz
    limits (-90.0 90.0)
           (-45.0 45.0)
  end
  begin
     id 29
     name rfingers
     direction -1 -4.49011e-011 -6.26677e-026   
     length 0.664896   
     axis 3.99874e-014 -90 -90   XYZ
    dof rx
    limits (0.0 90.0)
  end
  begin
     id 30
     name rthumb
     direction -0.707107 -6.34931e-011 0.707107   
     length 0.954662   
     axis -90 -45 -2.85299e-015   XYZ
    dof rx rz
    limits (-45.0 45.0)
           (-45.0 45.0)
  end
:hierarchy
  begin
    root lhipjoint rhipjoint lowerback
    lhipjoint lfemur
    lfemur ltibia
    ltibia lfoot
    lfoot ltoes
    rhipjoint rfemur
    rfemur rtibia
    rtibia rfoot
    rfoot rtoes
    lowerback upperback
    upperback thorax
    thorax lowerneck lclavicle rclavicle
    lowerneck upperneck
    upperneck head
    lclavicle lhumerus
    lhumerus lradius
    lradius lwrist
    lwrist lhand lthumb
    lhand lfingers
    rclavicle rhumerus
    rhumerus rradius
    rradius rwrist
    rwrist rhand rthumb
    rhand rfingers
  end

#!OML:ASF F:\VICON\USERDATA\INSTALL\rory3\rory3.ASF
:FULLY-SPECIFIED
:DEGREES
76
root 9.53066 17.7295 -14.0776 2.34733 -33.0002 -4.81357
lowerback 1.31909 -0.106697 -1.75336
upperback -1.07715 -0.135171 3.34796
thorax -1.83555 -0.0264445 4.44152
lowerneck -8.80184 -10.4587 -20.4605
upperneck 22.0051 -14.5901 13.795
head 11.143 -7.23202 6.35922
rclavicle -1.18389e-013 -2.8625e-014
rhumerus -35.8238 -17.202 -73.3062
rradius 28.9102
rwrist -11.3538
rhand -8.17393 17.8195
rfingers 7.12502
rthumb 17.7415 -11.3911
lclavicle -1.18389e-013 -2.8625e-014
lhumerus -32.3469 5.231 85.9477
lradius 22.2617
lwrist -17.7235
lhand -1.33286 29.7784
lfingers 7.12502
lthumb 24.3131 58.2565
rfemur -11.2747 5.16049 15.7457
rtibia 34.6747
rfoot -18.4319 -7.70114
rtoes 9.30971
lfemur -6.82439 -1.39623 -17.3387
ltibia 34.7677
lfoot -24.3714 10.6502
ltoes 0.220445
77
root 9.52956 17.729 -14.079 2.36312 -33.0217 -4.87083
lowerback 1.36302 -0.0866996 -1.76501
upperback -1.05377 -0.108699 3.39042
thorax -1.83858 -0.0131156 4.49178
lowerneck -8.85772 -10.5068 -20.4342
upperneck 21.9707 -14.6173 13.686
head 11.135 -7.2478 6.30395
rclavicle -1.13618e-013 0
rhumerus -35.5871 -18.4668 -72.6626
rradius 28.1238
rwrist -9.52585
rhand -7.70191 18.5539
rfingers 7.12502
rthumb 18.1956 -10.6151
lclavicle -1.13618e-013 0
lhumerus -32.2422 5.64057 85.822
lradius 22.7167
lwrist -16.5557
lhand 0.12186 31.1164
lfingers 7.12502
lthumb 25.7071 59.4003
rfemur -11.2931 5.24823 15.8209
rtibia 34.695
rfoot -18.3505 -7.90555
rtoes 8.27438
lfemur -6.80446 -1.31111 -17.2563
ltibia 34.7172
lfoot -24.3544 10.5616
ltoes 0.477446
78
root 9.5295 17.7293 -14.0809 2.2926 -32.8975 -4.73626
lowerback 1.44982 -0.132379 -1.94157
upperback -1.0797 -0.173184 3.39183
thorax -1.90799 -0.041366 4.59633
lowerneck -9.03866 -10.5217 -20.2832
upperneck 22.079 -14.5947 13.5087
head 11.1773 -7.2337 6.21045
rclavicle -6.48286e-014 -1.35174e-014
rhumerus -35.4611 -18.9889 -72.4114
rradius 27.7892
rwrist -9.06602
rhand -7.81191 18.4832
rfingers 7.12502
rthumb 18.0898 -10.6956
lclavicle -6.48286e-014 -1.35174e-014
lhumerus -32.228 6.05062 85.656
lradius 22.9967
lwrist -16.1578
lhand 1.05589 31.8795
lfingers 7.12502
lthumb 26.6013 60.031
rfemur -11.2955 5.18416 15.7006
rtibia 34.7193
rfoot -18.3868 -8.04871
rtoes 7.71295
lfemur -6.8021 -1.51259 -17.4043
ltibia 34.6764
lfoot -24.3497 10.6398
ltoes 0.954367
79
root 9.5287 17.7311 -14.0825 2.20518 -32.5576 -4.54143
lowerback 1.46366 -0.214228 -2.08817
upperback -1.12217 -0.285684 3.34259
thorax -1.94859 -0.094459 4.63218
lowerneck -9.00736 -10.5235 -20.2777
upperneck 22.0664 -14.598 13.4902
head 11.1651 -7.2376 6.20283
rclavicle -2.07978e-014 -6.75868e-015
rhumerus -35.6192 -18.8191 -72.3421
rradius 27.8435
rwrist -9.00087
rhand -7.77185 18.5576
rfingers 7.12502
rthumb 18.1284 -10.6176
lclavicle -2.07978e-014 -6.75868e-015
lhumerus -32.2519 5.92446 85.706
lradius 23.0269
lwrist -15.8554
lhand 0.841351 31.7744
lfingers 7.12502
lthumb 26.396 59.9568
rfemur -11.2672 5.06064 15.5512
rtibia 34.7395
rfoot -18.5694 -8.17331
rtoes 8.70114
lfemur -6.86589 -1.81384 -17.566
ltibia 34.6547
lfoot -24.293 10.5613
ltoes 1.73573
80
root 9.52693 17.7327 -14.0832 2.17446 -32.3166 -4.48094
lowerback 1.40928 -0.255827 -2.1085
upperback -1.06079 -0.342958 3.28181
thorax -1.84939 -0.125887 4.58097
lowerneck -9.16053 -10.5574 -20.1318
upperneck 22.0094 -14.6329 13.4881
head 11.1673 -7.2333 6.16437
rclavicle 7.09413e-014 -2.3059e-014
rhumerus -35.623 -18.3553 -72.5945
rradius 28.0718
rwrist -9.61416
rhand -7.98669 18.2998
rfingers 7.12502
rthumb 17.9216 -10.8945
lclavicle 7.09413e-014 -2.3059e-014
lhumerus -32.145 5.90853 85.6515
lradius 23.06
lwrist -15.7682
lhand 0.758197 31.6175
lfingers 7.12502
lthumb 26.3164 59.8118
rfemur -11.2165 4.98288 15.5226
rtibia 34.7418
rfoot -18.6828 -8.20281
rtoes 9.67226
lfemur -6.92067 -1.91636 -17.5783
ltibia 34.669
lfoot -24.2578 10.3849
ltoes 1.92255
81
root 9.52602 17.7332 -14.0839 2.18889 -32.1597 -4.49019
lowerback 1.32751 -0.278515 -2.05087
upperback -0.970465 -0.373524 3.22195
thorax -1.70804 -0.146122 4.48509
lowerneck -9.33385 -10.6031 -19.9901
upperneck 21.9147 -14.6922 13.547
head 11.1699 -7.23363 6.14378
rclavicle 7.3277e-014 -3.93594e-014
rhumerus -35.4918 -18.2772 -72.8049
rradius 28.1516
rwrist -10.1099
rhand -8.19825 18.0445
rfingers 7.12502
rthumb 17.7181 -11.1683
lclavicle 7.3277e-014 -3.93594e-014
lhumerus -32.0411 5.93329 85.5555
lradius 23.1427
lwrist -16.0221
lhand 0.95519 31.5779
lfingers 7.12502
lthumb 26.505 59.7439
rfemur -11.1882 4.85881 15.5415
rtibia 34.7373
rfoot -18.606 -8.20747
rtoes 9.20523
lfemur -6.96682 -1.80803 -17.5077
ltibia 34.694
lfoot -24.2553 10.1239
ltoes 1.40633
82
root 9.52516 17.7365 -14.0966 2.41655 -31.8098 -4.75316
lowerback 1.45265 -0.367975 -1.9078
upperback -1.10183 -0.487543 3.33036
thorax -1.9033 -0.199315 4.52245
lowerneck -9.14752 -10.609 -20.1486
upperneck 21.7998 -14.7079 13.5982
head 11.1127 -7.2561 6.1906
rclavicle 3.89991e-014 6.36111e-015
rhumerus -35.6345 -17.9344 -72.8353
rradius 28.2699
rwrist -10.5286
rhand -8.19203 17.9982
rfingers 7.12502
rthumb 17.7241 -11.214
lclavicle 3.89991e-014 6.36111e-015
lhumerus -32.1613 5.90812 85.6055
lradius 23.183
lwrist -16.2702
lhand 1.02536 31.4508
lfingers 7.12502
lthumb 26.5721 59.6067
rfemur -11.2573 4.82453 15.8709
rtibia 34.7179
rfoot -18.5146 -8.55803
rtoes 8.78282
lfemur -7.20769 -1.66593 -17.0987
ltibia 34.7326
lfoot -24.1807 9.63054
ltoes 1.15608
83
root 9.52288 17.7375 -14.1002 2.3881 -31.5539 -4.65478
lowerback 1.59153 -0.416824 -2.07645
upperback -1.23857 -0.554421 3.39005
thorax -2.11443 -0.22412 4.68593
lowerneck -9.00006 -10.594 -20.4218
upperneck 21.8089 -14.6944 13.6977
head 11.1184 -7.2702 6.28126
rclavicle 7.56376e-014 1.55052e-014
rhumerus -35.8752 -17.3769 -72.7763
rradius 28.4088
rwrist -10.8816
rhand -8.08768 18.1286
rfingers 7.12502
rthumb 17.8245 -11.0745
lclavicle 7.56376e-014 1.55052e-014
lhumerus -32.2617 5.93439 85.6964
lradius 23.2244
lwrist -16.3077
lhand 1.18946 31.4304
lfingers 7.12502
lthumb 26.7292 59.5625
rfemur -11.2286 4.69355 15.804
rtibia 34.6979
rfoot -18.5821 -8.69195
rtoes 9.00653
lfemur -7.29885 -1.64341 -17.1203
ltibia 34.7488
lfoot -24.1391 9.39533
ltoes 0.999487
84
root 9.5196 17.7382 -14.0974 2.28812 -31.3832 -4.46157
lowerback 1.57553 -0.418867 -2.26751
upperback -1.25129 -0.561726 3.37016
thorax -2.11653 -0.224624 4.77413
lowerneck -8.93255 -10.595 -20.5828
upperneck 21.7766 -14.7241 13.8765
head 11.1296 -7.28368 6.37265
rclavicle -6.61332e-014 2.82274e-014
rhumerus -35.9402 -17.2335 -72.6508
rradius 28.3363
rwrist -11.0141
rhand -7.93826 18.349
rfingers 7.12502
rthumb 17.9682 -10.841
lclavicle -6.61332e-014 2.82274e-014
lhumerus -32.2464 5.85523 85.7754
lradius 23.3549
lwrist -16.2059
lhand 1.15254 31.3944
lfingers 7.12502
lthumb 26.6938 59.5319
rfemur -11.1573 4.48296 15.6003
rtibia 34.6672
rfoot -18.6689 -8.62745
rtoes 9.24308
lfemur -7.30147 -1.73762 -17.3104
ltibia 34.7655
lfoot -24.1211 9.39359
ltoes 0.715181
85
root 9.51631 17.7379 -14.0968 2.26031 -31.21 -4.49807
lowerback 1.57709 -0.422795 -2.23645
upperback -1.22206 -0.566615 3.36805
thorax -2.08703 -0.228584 4.75407
lowerneck -8.75597 -10.5931 -20.6552
upperneck 21.6581 -14.7667 14.014
head 11.0783 -7.30372 6.43412
rclavicle -2.49351e-014 1.59028e-014
rhumerus -35.8575 -17.5895 -72.4497
rradius 28.0016
rwrist -10.6752
rhand -7.83014 18.4724
rfingers 7.12502
rthumb 18.0723 -10.708
lclavicle -2.49351e-014 1.59028e-014
lhumerus -32.2551 5.75888 85.7934
lradius 23.4963
lwrist -16.2419
lhand 1.06662 31.2647
lfingers 7.12502
lthumb 26.6116 59.4147
rfemur -11.0429 4.3444 15.6443
rtibia 34.635
rfoot -18.683 -8.66351
rtoes 9.20796
lfemur -7.24733 -1.79447 -17.2654
ltibia 34.76
lfoot -24.1086 9.36406
ltoes 0.310484
86
root 9.51375 17.737 -14.0979 2.33395 -31.1115 -4.72579
lowerback 1.56227 -0.41136 -1.99531
upperback -1.16467 -0.546177 3.37789
thorax -2.02327 -0.224028 4.62559
lowerneck -8.71514 -10.6139 -20.5577
upperneck 21.5789 -14.7994 13.968
head 11.0346 -7.31533 6.39435
rclavicle -4.30493e-014 -1.11319e-014
rhumerus -35.7165 -18.1879 -72.2511
rradius 27.6521
rwrist -10.0058
rhand -7.65603 18.5809
rfingers 7.12502
rthumb 18.2398 -10.5839
lclavicle -4.30493e-014 -1.11319e-014
lhumerus -32.1692 5.60268 85.7746
lradius 23.572
lwrist -16.1751
lhand 0.992746 31.2132
lfingers 7.12502
lthumb 26.5409 59.3738
rfemur -10.9568 4.39393 15.9025
rtibia 34.607
rfoot -18.6507 -8.81787
rtoes 8.9253
lfemur -7.21787 -1.68959 -16.9959
ltibia 34.7455
lfoot -24.0471 9.2495
ltoes 0.0842693
